<svg xmlns="http://www.w3.org/2000/svg" width="32" height="32" viewBox="0 0 32 32" fill="none">
  <rect width="32" height="32" rx="8" fill="#0f172a"/>
  <path d="M19 12L10.5 20.5C9.67 21.33 8.33 21.33 7.5 20.5C7.5 20.5 7.5 20.5 7.5 20.5C6.67 19.67 6.67 18.33 7.5 17.5L16 9" stroke="white" stroke-width="2" stroke-linecap="round" stroke-linejoin="round"/>
  <path d="M21.64 15L26 10.64" stroke="white" stroke-width="2" stroke-linecap="round" stroke-linejoin="round"/>
  <path d="M24.91 11.7L23.66 10.45C23.06 9.85 22.73 9.05 22.73 8.22V5C22.73 3.9 21.83 3 20.73 3H19.51C18.69 3 17.88 3.33 17.29 3.92L14.91 6.1" stroke="white" stroke-width="2" stroke-linecap="round" stroke-linejoin="round"/>
  <path d="M19.15 3.90002L25.1 9.85002" stroke="white" stroke-width="2" stroke-linecap="round" stroke-linejoin="round"/>
</svg>
